<svg id="Layer_1" data-name="Layer 1" xmlns="http://www.w3.org/2000/svg" viewBox="0 0 560.07 386.31">
  <defs>
    <style>
      .cls-1 {
        fill: #006400;
      }
    </style>
  </defs>
  <path id="path1" class="cls-1" d="M94,472.61c-9.72-2.32-23.78-14.53-39.38-34.17C23,398.57,5.79,353.85.72,298.19c-1-10.71-1-37.81,0-47.73,4.63-46.76,21-87,51-125.56C61,113.11,76.19,97.65,83.49,92.73c10.33-7,16.83-7.54,23.06-2C109.1,93,109.68,94,110,96.93c.61,5.45-2.18,9.71-15.18,23.13C76.68,138.81,68.3,149.25,59,164.69,38,199.75,28.93,236.62,30.23,282.44c.69,24.41,3.3,42.41,9.06,62.42A199,199,0,0,0,60,393.26c9.36,15.92,17.23,26,33,42.18,13.8,14.22,17.23,19.15,17.23,24.81a13,13,0,0,1-9.58,12.28c-3.1.87-3.31.87-6.63.08Zm364.35.21c-2.93-.62-8.19-6.27-8.78-9.45-.95-5.11,2.09-9.66,16.27-24.35,7-7.22,15.56-16.72,19.07-21.11,25.73-32.07,40-67.76,43.83-109.44,1.17-12.85.57-46-1.07-58.38-3.44-26-9.77-47.28-20.75-69.65-10.5-21.4-21.37-36.59-39.72-55.5-12.32-12.7-15.95-17.33-17.19-22s-.34-7.87,3.05-11.73c4.65-5.28,10-5.75,18.28-1.62,10.06,5,23.11,18.07,38.25,38.32,30.46,40.74,46.17,85.55,49.95,142.48,3.21,48.37-8.53,97.33-33,137.88-16.93,28-42.75,56.67-56.5,62.75-3.59,1.59-8.75,2.37-11.65,1.75ZM154.3,443.33a15.91,15.91,0,0,1-11-19c1.23-5.11,6.36-10.37,11.36-11.63s265.38-1.27,270.42,0,10.21,6.57,11.33,11.82a16.06,16.06,0,0,1-7.62,17.35l-3.17,1.82L291,443.82c-74,.07-135.55-.15-136.67-.49ZM256.85,380c-25-9.1-45.81-26.82-56.45-48.1a90.57,90.57,0,0,1-9.36-39c0-17.36,6.8-33.9,27.48-66.95,15.41-24.62,18-29.11,22.56-38.56,6-12.58,8-20.05,8.14-30.61.12-10.09-1.39-16.08-6-23.91-3.29-5.55-10.71-13.92-13.73-15.48-4.91-2.54-5.93-6-2.44-8.27,5.52-3.62,20.59-1.33,34.43,5.23q23.51,11.14,34.74,32.06c5.8,10.77,8.13,19,12.06,42.62,4.37,26.18,8.69,34.48,17.44,33.48,4.63-.54,7.52-2.29,9.47-5.77,3.11-5.53,1.78-13.1-4.51-25.62-5.13-10.24-4.82-13.33,1.21-11.74,3.12.83,13.24,9.1,20.25,16.55,17.54,18.64,26.27,35.57,30.47,59.1,2.2,12.34,2.38,32.8.39,43.5a100.47,100.47,0,0,1-14.87,37.12c-8.09,12.14-24.95,27.51-37.22,33.9-5.53,2.88-7.46,3.06-10.17.92-3.38-2.65-2.66-4.5,4.8-12.43,11.21-11.91,16.94-20.38,20.26-30,5.12-14.79,2.57-35.41-6-48.56-3.55-5.44-8.76-10.24-11.11-10.24-1.29,0-1.08,1.7,1.31,10.45a42.68,42.68,0,0,1,1.52,8.32c0,8-11.3,13.81-21.25,10.92-8.09-2.35-11.66-9.69-10.59-21.78.33-3.73.63-10.52.66-15.08.06-8,0-8.45-2.57-13.47-5-9.78-16.43-19.86-22.61-19.86-2.67,0-2.89.16-2.89,2.12a5.69,5.69,0,0,0,1.95,3.93c6.4,6,7.61,18.22,2.86,29-2.94,6.68-6.25,10.46-17.55,20.06-14.88,12.62-19.67,18.64-22.64,28.4-1.38,4.51-1.52,6.35-1.13,14.62.65,13.89,3.48,23.1,10.1,32.84a38.05,38.05,0,0,0,19.1,15.24c3.89,1.46,4.31,1.83,4.31,3.79,0,2.26-1.72,3.75-4.26,3.68a54.84,54.84,0,0,1-8.11-2.49Z" transform="translate(0 -86.88)"/>
</svg>
