<svg id="products-meistertask-icon" xmlns="http://www.w3.org/2000/svg" viewBox="0 0 32 32">
  <g fill="none" fill-rule="evenodd">
    <path fill="#0AF" d="M19.9978604,1.05457478 C31.5962188,4.16759596 33.6583755,9.76840829 30.9202182,20.0046146 C28.182061,30.2408209 23.6004979,34.0584464 12.0021396,30.9454252 C0.403781249,27.832404 -1.65837547,22.2315917 1.07978177,11.9953854 C3.817939,1.75917906 8.3995021,-2.05844639 19.9978604,1.05457478 Z"/>
    <path fill="#FFF" d="M13.2658615,15.8779027 L13.2658615,1.0503247 C13.2658615,0.278879339 13.8912415,-0.346500693 14.6626869,-0.346500693 C15.4341323,-0.346500693 16.0595123,0.278879339 16.0595123,1.0503247 L16.0595123,17.2747281 C16.0595123,18.0461735 15.4341323,18.6715535 14.6626869,18.6715535 L8.13220717,18.6715535 C7.3607618,18.6715535 6.73538177,18.0461735 6.73538177,17.2747281 C6.73538177,16.5032827 7.3607618,15.8779027 8.13220717,15.8779027 L13.2658615,15.8779027 Z" transform="rotate(45 7.862 17.698)"/>
  </g>
</svg>
