<svg class="navImg" id="Layer_1" data-name="Layer 1" xmlns="http://www.w3.org/2000/svg" viewBox="0 0 256 238.65">
    <desc>Home Icon</desc>
    <defs>
        <style>
            .homeIcon-cls-1 {
                fill-rule: evenodd;
            }
        </style>
    </defs>
    <path class="homeIcon-cls-1"
        d="M78.66,73.17h98.68l24.35,19.74H54.31L78.66,73.17ZM0,103.76,128,0,256,103.76l-11,10L128,18.89,11,113.74ZM108.63,48.88h38.74l24.35,19.74H84.28l24.35-19.74Zm33.12-4.55H114.24L128,33.18Zm81.82,66.32v6.55H32.43v-6.55L48.69,97.46H207.3Zm0,11.1v19.74H32.43V121.76H223.57Zm0,24.29v19.74h-56.1v-11.6H88.53v11.6H32.43V146Zm0,24.29v19.74h-56.1V170.33Zm-135,19.74H32.43V170.33h56.1Zm135,4.56v19.73h-56.1V194.63Zm-135,19.73H32.43V194.63h56.1Zm135,4.56v19.73h-56.1V218.92Zm-135,19.73H32.43V218.92h56.1Z" />
</svg>