<svg version="1.1" xmlns="http://www.w3.org/2000/svg" x="0" y="0" viewBox="0 0 90 90" xml:space="preserve">
    <desc>QuickBooks Logo</desc>
    <circle cx="45" cy="45" r="45" fill="#2ca01c" />
    <path
        d="M12.5 45c0 9.7 7.8 17.5 17.5 17.5h2.5V56H30c-6.1 0-11-4.9-11-11s4.9-11 11-11h6v34c0 3.6 2.9 6.5 6.5 6.5v-47H30c-9.7 0-17.5 7.8-17.5 17.5zM60 27.5h-2.5V34H60c6.1 0 11 4.9 11 11s-4.9 11-11 11h-6V22c0-3.6-2.9-6.5-6.5-6.5v47H60c9.7 0 17.5-7.8 17.5-17.5S69.7 27.5 60 27.5z"
        fill="#fff" />
</svg>