<svg id="Layer_1" data-name="Layer 1" xmlns="http://www.w3.org/2000/svg" viewBox="0 0 165.21 170.21">
  <defs>
    <style>
      .cls-1 {
        fill: #231f20;
      }

      .cls-2 {
        fill: #de3735;
      }
    </style>
  </defs>
  <g>
    <path class="cls-1" d="M27.24,92.24l.39,3.8-8.57,1.39c-1.38.18-2.61.34-4.06.51V98c1.48.07,2.76.24,4.14.36l4.64.62.25,2.35-4.42,1.49c-1.3.4-2.51.82-4,1.22v.1c1.49-.13,2.72-.24,4.06-.34l8.69-.45.37,3.57-16.42-.31L12,102.74l4.92-1.49a26.12,26.12,0,0,1,3.05-.76v-.08c-1,0-2.09,0-3.14-.1l-5.11-.4-.4-3.83Z" transform="translate(-11.26 -5.2)"/>
    <path class="cls-1" d="M19.38,110.38a6.33,6.33,0,0,1,8.18,4.13c1.18,3.63-.65,6.35-3.86,7.39a10.52,10.52,0,0,1-1.61.36l-2.91-9,2.34-.76,2.14,6.58-.84-.33c1.89-.62,2.62-1.76,2.11-3.31-.56-1.73-2.1-2.48-4.44-1.72s-3.09,2.48-2.35,4.77A6.8,6.8,0,0,0,20,121.31l-1.73,1.85a9.58,9.58,0,0,1-2.9-4.23C14.13,115.25,15.46,111.65,19.38,110.38Z" transform="translate(-11.26 -5.2)"/>
    <path class="cls-1" d="M22.34,131.08l0-.08-1.33.41-1.44-2.49,15.16-8.77,1.84,3.19-3.7,2.14-1.76.86.05.08A5,5,0,0,1,34,128.64c1.55,2.68.36,5.57-2.93,7.47-3.7,2.14-7.12,1.11-8.51-1.28A4.8,4.8,0,0,1,22.34,131.08Zm6.83,1.8c1.92-1.11,2.52-2.3,1.74-3.65a3.1,3.1,0,0,0-2.14-1.4l-4.33,2.5a3.19,3.19,0,0,0,.35,2.27C25.47,133.76,27,134.17,29.17,132.88Z" transform="translate(-11.26 -5.2)"/>
    <path class="cls-1" d="M50.24,142.75l3.64,2.65c3.82,2.78,4.87,6.61,1.58,11.14s-7.36,4.81-11,2.15l-3.8-2.78ZM45.87,156c2.05,1.5,4.24,1.42,6.53-1.73s1.61-5.14-.43-6.63l-.5-.36-6.09,8.36Z" transform="translate(-11.26 -5.2)"/>
    <path class="cls-1" d="M57.13,159.77a6.32,6.32,0,0,1,8.54-3.29c3.49,1.56,4.27,4.74,2.89,7.81a9.93,9.93,0,0,1-.81,1.44l-8.59-3.84,1-2.25,6.32,2.83-.82.4c.81-1.82.45-3.12-1-3.79-1.65-.74-3.24-.1-4.25,2.15s-.24,4,2,4.93a6.74,6.74,0,0,0,3.26.52l.21,2.52a9.49,9.49,0,0,1-5.08-.68C57.21,166.94,55.44,163.53,57.13,159.77Z" transform="translate(-11.26 -5.2)"/>
    <path class="cls-1" d="M72.58,159.76l3.61.77.69,6.12c.13,1.3.2,2.62.29,4l.1,0c.63-1.2,1.22-2.37,1.88-3.5l3.13-5.31,3.44.73-7,11.18-4.12-.88Z" transform="translate(-11.26 -5.2)"/>
    <path class="cls-1" d="M87.63,168.79a6.32,6.32,0,0,1,6.55-6.39c3.83.07,5.8,2.68,5.74,6a10.1,10.1,0,0,1-.18,1.65l-9.41-.16,0-2.47,6.92.12-.6.69c0-2-.81-3.05-2.44-3.08-1.82,0-3,1.18-3.07,3.65s1.34,3.73,3.75,3.77a7,7,0,0,0,3.21-.81L99.33,174a9.42,9.42,0,0,1-4.94,1.37C90.53,175.35,87.56,172.91,87.63,168.79Z" transform="translate(-11.26 -5.2)"/>
    <path class="cls-1" d="M107.46,169.09l-2-9.57-3.82.8-.58-2.82,7.42-1.55,2.61,12.54a1.84,1.84,0,0,0,2.39,1.58,5.42,5.42,0,0,0,1.81-.79l1.35,2.48a10.31,10.31,0,0,1-3.49,1.41C110.1,173.81,108.1,172.17,107.46,169.09Z" transform="translate(-11.26 -5.2)"/>
    <path class="cls-1" d="M118.88,165a6.33,6.33,0,1,1,8.41,3.39A6.23,6.23,0,0,1,118.88,165Zm8.13-3.59c-.87-2-2.22-2.89-3.77-2.2s-1.78,2.3-.91,4.27,2.21,2.87,3.76,2.19S127.88,163.35,127,161.39Z" transform="translate(-11.26 -5.2)"/>
    <path class="cls-1" d="M130.23,152.8l2.43-1.76,1,.87.07,0a5.72,5.72,0,0,1,2.08-3.43c2.51-1.81,5.48-.9,7.72,2.2,2.49,3.45,1.81,7-.44,8.58a4.38,4.38,0,0,1-3.25.69l-.07.06,1.31,1.52,2.13,3-3,2.15Zm10.23.07c-1.3-1.81-2.54-2.28-3.8-1.37a3.08,3.08,0,0,0-1.18,2.28l2.92,4.05a3.26,3.26,0,0,0,2.21-.57C141.71,156.46,142,155,140.46,152.87Z" transform="translate(-11.26 -5.2)"/>
    <path class="cls-1" d="M141.28,144.63l1.87-2,1.31.83,0-.06a2.83,2.83,0,0,1,.46-3.22,2.23,2.23,0,0,1,2.95-.23,2.9,2.9,0,0,1,.34-3.39c1.19-1.31,3-1,4.83.64l6.43,5.85-2.35,2.59-6.24-5.68c-.57-.52-1-.62-1.29-.27s-.25.85.13,1.66l6.19,5.63L154,149.05l-6.24-5.68c-.57-.51-1-.59-1.32-.24s-.22.84.16,1.63l6.19,5.63L150.46,153Z" transform="translate(-11.26 -5.2)"/>
    <path class="cls-1" d="M156.65,136.35a6.32,6.32,0,0,1-2.34-8.84c1.93-3.31,5.17-3.74,8.08-2a9.68,9.68,0,0,1,1.34,1L159,134.55l-2.13-1.24,3.49-6,.31.85c-1.71-1-3-.79-3.88.62-.91,1.57-.45,3.22,1.67,4.47s3.91.66,5.13-1.43a6.82,6.82,0,0,0,.86-3.19l2.53.07a9.44,9.44,0,0,1-1.23,5C163.79,137,160.21,138.43,156.65,136.35Z" transform="translate(-11.26 -5.2)"/>
    <path class="cls-1" d="M158.64,120l.94-2.85,1.65.27,0-.1a6,6,0,0,1-.52-4.68c.88-2.67,3.09-3.24,6.06-2.26l7.28,2.41-1.16,3.49L166.11,114c-1.57-.52-2.42-.3-2.84,1a3.51,3.51,0,0,0,.44,2.79l7.86,2.59-1.15,3.5Z" transform="translate(-11.26 -5.2)"/>
    <path class="cls-1" d="M170.41,104.21l-4.36-.47-.34,3.11-2.72-.3.21-3.29-3.71-.88.33-3,3.77.42.56-5.2,2.87.31-.57,5.2,4.31.47c1.88.2,2.67-.51,2.87-2.31a7.36,7.36,0,0,0-.18-2.48l2.72-.38a13.47,13.47,0,0,1,.23,4.11C176,103.41,173.64,104.57,170.41,104.21Z" transform="translate(-11.26 -5.2)"/>
  </g>
  <g>
    <path class="cls-2" d="M11.44,62.61l2-4.17,9.7,4.06c1.54.7,2.89,1.32,4.49,2.07l.05-.11c-1.47-1-2.67-2-4-3l-4.37-3.6,1.25-2.56,5.49,1.28c1.59.42,3.1.76,4.87,1.28l0-.1c-1.62-.83-2.95-1.49-4.4-2.25l-9.2-5.09,1.89-3.9L35.93,57.3l-2.08,4.28-6-1.61a30.7,30.7,0,0,1-3.62-1.16l0,.08c1,.63,2.13,1.35,3.16,2.11l5,3.68-2,4.19Z" transform="translate(-11.26 -5.2)"/>
    <path class="cls-2" d="M25.51,38.35,29,34.27l19,8-3,3.61-9.26-4.5c-1.82-.89-4-1.92-5.87-2.9l-.08.09c1.28,1.71,2.69,3.62,3.87,5.27l6,8.4-2.95,3.49Zm7.47,9,6.1-7.2,2.65,2.25-6.09,7.2Z" transform="translate(-11.26 -5.2)"/>
    <path class="cls-2" d="M49,33.49,36.23,26.57l3.88-2.77,4.38,2.68c1.36.9,2.67,1.72,4.08,2.64l.1-.07c-.41-1.63-.73-3.16-1.12-4.75l-1.14-5,3.79-2.71L52.61,30.9l3.88,5.42-3.63,2.6Z" transform="translate(-11.26 -5.2)"/>
    <path class="cls-2" d="M55.8,13.79l4.26-1.65,7.4,7.64,3.14,3.43.1,0c-.94-1.87-2.32-4.29-3.16-6.46L65,10.22l4-1.53L76.1,27.07l-4.26,1.64-7.41-7.65L61.3,17.65l-.1,0c1,2,2.32,4.28,3.15,6.44l2.52,6.51-4,1.54Z" transform="translate(-11.26 -5.2)"/>
    <path class="cls-2" d="M77.28,6.74l13-1.54.44,3.71-8.54,1,.46,3.93L89.87,13l.44,3.71-7.26.86.54,4.51L92.43,21l.44,3.71L79.6,26.3Z" transform="translate(-11.26 -5.2)"/>
    <path class="cls-2" d="M119.55,8.92l4.34,1.74-.81,7.2-.4,2.78.11,0,1.62-2.28,4.41-5.76,4.34,1.75-7.35,18.28-3.5-1.4,2.27-5.66c.83-2.06,3-6.38,4-8.28l-.08,0-3.38,4.34-3.19,3.84-2-.81.33-5,.66-5.43-.1,0c-.58,2.06-2,6.66-2.86,8.72l-2.27,5.66-3.45-1.38Z" transform="translate(-11.26 -5.2)"/>
    <path class="cls-2" d="M130.43,31.07l3.71,2.72,7.23-9.86-3.71-2.72,2.21-3,11,8.08-2.21,3L145,26.57l-7.24,9.86,3.71,2.72-2.21,3-11-8.08Z" transform="translate(-11.26 -5.2)"/>
    <path class="cls-2" d="M156.51,31.51l3,3.61-4.16,5.93-1.68,2.24.08.1,2.52-1.23,6.62-2.95,3,3.61-15.2,12.53-2.4-2.91,4.71-3.88c1.71-1.41,5.66-4.16,7.44-5.35l-.06-.07-5,2.19-4.64,1.84-1.37-1.67,2.67-4.22,3.18-4.46-.07-.08c-1.5,1.53-5,4.87-6.68,6.29l-4.71,3.87L141.3,44Z" transform="translate(-11.26 -5.2)"/>
    <path class="cls-2" d="M154,56l3.86,1a8.46,8.46,0,0,0,.36,5.62c.81,1.71,1.85,2.19,2.72,1.78,1.28-.6,1.09-1.81,1-3.83l-.1-2.79c-.18-2.33.49-4.85,3.08-6.07,3-1.39,6.57.17,8.39,4a9.56,9.56,0,0,1,.45,7l-3.5-.83a7.09,7.09,0,0,0-.54-4.77c-.62-1.33-1.6-2-2.64-1.48s-.9,1.88-.74,3.89l.1,2.62c.22,2.75-.54,4.91-3.06,6.09-3,1.39-6.7.11-8.78-4.3A11.36,11.36,0,0,1,154,56Z" transform="translate(-11.26 -5.2)"/>
  </g>
</svg>
