<svg xmlns="http://www.w3.org/2000/svg" viewBox="0 0 26 37.5" x="0px" y="0px"><path fill="#000" fill-rule="evenodd" d="M24 24H2v-1.632c0-.432.278-.815.691-.952 1.429-.473 3.869-1.085 7.376-1.32l.933-.063V15h4v3.043A45.605 45.605 0 0 0 13 18v2c5.258 0 8.729.892 10.33 1.424.4.133.67.513.67.944V24zm-2 3c0 .552-.449 1-1 1H5c-.551 0-1-.448-1-1v-1h18v1zM8.343 3.151a.984.984 0 0 1 .229-.802A.986.986 0 0 1 9.331 2h7.338c.296 0 .566.124.759.349.193.225.274.51.229.802l-1.385 9a.993.993 0 0 1-.988.849h-4.568a.993.993 0 0 1-.988-.849l-1.385-9zM23.96 19.525c-1.262-.419-3.603-1.047-6.96-1.35v-3.722a2.977 2.977 0 0 0 1.249-1.997l1.385-9A2.999 2.999 0 0 0 16.669 0H9.331a2.999 2.999 0 0 0-2.965 3.456l1.385 9A2.977 2.977 0 0 0 9 14.453v3.72c-3.225.288-5.53.879-6.937 1.345A2.998 2.998 0 0 0 0 22.368V26h2v1c0 1.654 1.346 3 3 3h16c1.654 0 3-1.346 3-3v-1h2v-3.632c0-1.295-.82-2.437-2.04-2.843z"/><text x="0" y="45" fill="#000000" font-size="5px" font-weight="bold" font-family="'Helvetica Neue', Helvetica, Arial-Unicode, Arial, Sans-serif">Created by Denis Shumaylov</text><text x="0" y="50" fill="#000000" font-size="5px" font-weight="bold" font-family="'Helvetica Neue', Helvetica, Arial-Unicode, Arial, Sans-serif">from the Noun Project</text></svg>