<svg id="Layer_1" data-name="Layer 1" xmlns="http://www.w3.org/2000/svg" viewBox="0 0 64 64">
  <defs>
    <style>
      .cls-1 {
        fill: #25c16f;
      }

      .cls-2 {
        fill: #fff;
      }
    </style>
  </defs>
  <path class="cls-1" d="M31.9,0h24A8,8,0,0,1,64,7.94V32.1A31.9,31.9,0,0,1,32.1,64h-.18A31.89,31.89,0,0,1,0,32.14v0A32.14,32.14,0,0,1,31.9,0Z"/>
  <path class="cls-2" d="M31.9,14.26A14.65,14.65,0,0,0,17.25,28.91v10a5,5,0,0,0,4.87,4.88h4.14V32.3h-5.6V29.1a11.38,11.38,0,0,1,22.72,0v3.2H37.7V43.75h3.74v.19a4.57,4.57,0,0,1-4.5,4.5H32.47c-.36,0-.76.18-.76.54a.8.8,0,0,0,.76.77H37a5.86,5.86,0,0,0,5.82-5.82v-.37a4.77,4.77,0,0,0,3.74-4.72V29.1A14.47,14.47,0,0,0,31.88,14.26Z"/>
</svg>
