<svg id="Layer_1" data-name="Layer 1" xmlns="http://www.w3.org/2000/svg" viewBox="0 0 255.01 248.71">
  <g>
    <path d="M127.5,0A127.52,127.52,0,0,0,87.2,248.49c6.37,1.18,8.71-2.76,8.71-6.13,0-3-.12-13.08-.17-23.74-35.48,7.71-43-15-43-15-5.8-14.74-14.16-18.66-14.16-18.66-11.57-7.91.87-7.75.87-7.75C52.3,178.07,59,190.31,59,190.31c11.37,19.49,29.83,13.86,37.1,10.6,1.15-8.24,4.45-13.87,8.1-17-28.32-3.23-58.09-14.16-58.09-63A49.39,49.39,0,0,1,59.28,86.62C58,83.41,53.6,70.44,60.52,52.88c0,0,10.7-3.43,35.07,13.07a121,121,0,0,1,63.86,0c24.33-16.5,35-13.07,35-13.07,6.94,17.56,2.57,30.53,1.25,33.74a49.27,49.27,0,0,1,13.12,34.23c0,49-29.83,59.75-58.22,62.91,4.57,4,8.65,11.71,8.65,23.61,0,17.06-.15,30.79-.15,35,0,3.39,2.29,7.37,8.76,6.12A127.53,127.53,0,0,0,127.5,0"/>
    <path d="M47.76,181.63c-.28.64-1.28.83-2.19.39s-1.45-1.28-1.15-1.91,1.28-.84,2.2-.4,1.46,1.29,1.13,1.92m6.28,5.6c-.61.56-1.8.3-2.61-.59s-1-2.08-.37-2.65,1.78-.3,2.62.59,1,2.08.36,2.65m4.3,7.16c-.78.54-2.06,0-2.85-1.1s-.78-2.49,0-3,2-.05,2.85,1.07.78,2.52,0,3.07m7.28,8.29c-.7.77-2.19.57-3.28-.49s-1.43-2.48-.72-3.25,2.2-.56,3.3.49,1.44,2.49.7,3.25m9.4,2.8c-.31,1-1.74,1.45-3.18,1s-2.39-1.61-2.1-2.61,1.74-1.48,3.2-1,2.38,1.6,2.08,2.61m10.7,1.19c0,1.05-1.19,1.92-2.7,1.94s-2.76-.82-2.78-1.85,1.2-1.93,2.73-1.95,2.75.81,2.75,1.86m10.52-.4c.18,1-.87,2.08-2.38,2.36s-2.85-.37-3-1.38.89-2.11,2.37-2.38,2.86.35,3,1.4"/>
  </g>
</svg>
