<svg id="Layer_1" data-name="Layer 1" xmlns="http://www.w3.org/2000/svg" viewBox="0 0 256 256">
  <defs>
    <style>
      .cls-1 {
        fill: #de4c36;
      }
    </style>
  </defs>
  <path class="cls-1" d="M251.17,116.59,139.4,4.83a16.48,16.48,0,0,0-23.31,0L92.88,28l29.44,29.44a19.57,19.57,0,0,1,24.79,25l28.38,28.38a19.59,19.59,0,1,1-11.75,11.06L137.28,95.42v69.63a19.84,19.84,0,0,1,5.19,3.71,19.62,19.62,0,1,1-27.74,0,19.85,19.85,0,0,1,6.42-4.28V94.2a19.64,19.64,0,0,1-10.65-25.73l-29-29L4.83,116.08a16.49,16.49,0,0,0,0,23.32L116.6,251.17a16.51,16.51,0,0,0,23.32,0L251.17,139.92a16.5,16.5,0,0,0,0-23.33" transform="translate(0 0)"/>
</svg>
