<svg class="navImg" fill="#ff4500" xmlns="http://www.w3.org/2000/svg" xmlns:xlink="http://www.w3.org/1999/xlink" xml:space="preserve" version="1.1" style="shape-rendering:geometricPrecision;text-rendering:geometricPrecision;image-rendering:optimizeQuality;" viewBox="0 0 20021 20021" x="0px" y="0px" fill-rule="evenodd" clip-rule="evenodd">
    <desc>Mail Icon</desc>
    <g>
        <path d="M20021 1178l0 10335c0,475 -388,863 -863,863l-3571 0c-930,-2159 -3077,-3671 -5576,-3671 -2500,0 -4647,1512 -5576,3671l-3572 0c-475,0 -863,-388 -863,-863l0 -10335 9689 5798c203,122 440,122 643,0l9689 -5798zm-19158 -1178l18295 0c267,0 507,123 666,316l-9813 5872 -9814 -5872c159,-193 399,-316 666,-316zm9148 9526c2898,0 5247,2350 5247,5248 0,2898 -2349,5247 -5247,5247 -2898,0 -5248,-2349 -5248,-5247 0,-2898 2350,-5248 5248,-5248zm2776 7222l788 0c-246,526 -624,938 -1135,1236 -583,341 -1295,513 -2136,513 -813,0 -1514,-144 -2106,-432 -592,-288 -1032,-713 -1319,-1274 -289,-561 -433,-1172 -433,-1834 0,-725 164,-1400 492,-2027 327,-625 776,-1094 1345,-1408 568,-314 1219,-471 1951,-471 620,0 1173,127 1655,379 483,253 852,611 1107,1077 255,465 382,973 382,1524 0,658 -193,1252 -580,1783 -484,670 -1106,1005 -1864,1005 -204,0 -358,-37 -462,-111 -103,-75 -171,-183 -207,-327 -290,292 -625,438 -1004,438 -408,0 -748,-147 -1018,-442 -269,-295 -404,-687 -404,-1176 0,-605 162,-1156 486,-1656 395,-608 900,-911 1515,-911 438,0 762,175 970,526l92 -432 975 0 -558 2767c-34,176 -52,289 -52,340 0,64 14,113 43,144 28,33 62,49 101,49 118,0 271,-75 459,-224 251,-195 454,-459 609,-788 155,-329 233,-671 233,-1024 0,-633 -219,-1163 -657,-1589 -439,-426 -1050,-640 -1836,-640 -668,0 -1234,143 -1698,427 -464,287 -814,688 -1048,1206 -236,517 -354,1056 -354,1617 0,544 132,1039 394,1486 262,447 631,772 1105,978 473,205 1015,307 1627,307 588,0 1095,-87 1518,-259 423,-173 765,-432 1024,-777zm-3987 -1588c0,327 63,569 189,723 127,154 284,232 470,232 140,0 271,-36 394,-108 93,-52 185,-133 276,-244 131,-157 244,-385 338,-687 95,-301 141,-582 141,-843 0,-290 -64,-514 -193,-670 -129,-155 -292,-233 -488,-233 -212,0 -407,86 -586,257 -179,171 -314,415 -405,732 -91,316 -136,597 -136,841z"></path>
    </g>
</svg>