<svg fill="#DE3636" class="navImg" id="Layer_1" data-name="Layer 1" xmlns="http://www.w3.org/2000/svg" viewBox="0 0 221.67 195.3">
    <desc>Projects Icon</desc>
    <path d="M67.28,0h57.07V15.92a6.57,6.57,0,0,0,6.55,6.55h15.92V74.21h-7.48V67a14.61,14.61,0,0,0-14.56-14.57H108.54L81.86,16.64l-1.27-1.7L64,12.52V3.25A3.26,3.26,0,0,1,67.28,0ZM99.34,128.74h12.17a2.46,2.46,0,0,1,2.45,2.45v12.18a2.45,2.45,0,0,1-2.45,2.44H99.34a2.45,2.45,0,0,1-2.45-2.44V131.19A2.46,2.46,0,0,1,99.34,128.74ZM28.75,79.47H182.1v35a21.93,21.93,0,0,1-21.87,21.87H118.89v-8.66a3.87,3.87,0,0,0-3.86-3.86H95.82A3.88,3.88,0,0,0,92,127.67v8.66H50.62a21.93,21.93,0,0,1-21.87-21.87v-35ZM77.09,75V68.09A9.76,9.76,0,0,1,80,61.21h0a9.72,9.72,0,0,1,6.88-2.86H124a9.69,9.69,0,0,1,6.87,2.86h0a9.76,9.76,0,0,1,2.86,6.88V75h-6.5V68.09a3.23,3.23,0,0,0-1-2.3h0a3.23,3.23,0,0,0-2.29-.94H86.84a3.23,3.23,0,0,0-2.29.94h0a3.27,3.27,0,0,0-.94,2.3V75Zm105,57.66v50.84a11.81,11.81,0,0,1-11.77,11.77H40.51a11.8,11.8,0,0,1-11.76-11.77V132.69A28.46,28.46,0,0,0,50.62,143H92v3.93a3.88,3.88,0,0,0,3.87,3.86H115a3.87,3.87,0,0,0,3.86-3.86V143h41.34a28.47,28.47,0,0,0,21.87-10.27ZM165.36,5.6l48.22,30.54-8.52,13.45a6.56,6.56,0,0,0,2,9l13.44,8.52-32.7,51.62V79.48a5.28,5.28,0,0,0-5.27-5.27h-31V21.36l9.35-14.75a3.25,3.25,0,0,1,4.48-1Zm50,31.68,6.3,28.07-13.45-8.51a4.45,4.45,0,0,1-1.37-6.12l8.52-13.44Zm-1.49,8.57-4.22,6.66A1.11,1.11,0,0,0,210,54l6.66,4.22-2.78-12.39ZM1.3,49.6,47.06,15.48l9.51,12.76a6.57,6.57,0,0,0,9.17,1.33L78.5,20.06l24.14,32.36H86.07A14.62,14.62,0,0,0,71.5,67v7.22H28.29A5.28,5.28,0,0,0,23,79.48v4.66L.64,54.14A3.25,3.25,0,0,1,1.3,49.6ZM48.76,14.21l28.47,4.15L64.47,27.87a4.44,4.44,0,0,1-6.2-.9Zm7.47,4.45L60.94,25a1.11,1.11,0,0,0,1.54.22l6.32-4.71ZM126.47,0l20.35,20.35H130.9a4.44,4.44,0,0,1-4.43-4.43Zm3.33,8v7.88a1.11,1.11,0,0,0,1.1,1.1h7.88Z" />
</svg>