<svg class="navImg" fill="#ff4500" xmlns="http://www.w3.org/2000/svg" xmlns:xlink="http://www.w3.org/1999/xlink" xml:space="preserve" version="1.1" style="shape-rendering:geometricPrecision;text-rendering:geometricPrecision;image-rendering:optimizeQuality;" viewBox="0 0 184579 196016" x="0px" y="0px" fill-rule="evenodd" clip-rule="evenodd">
    <desc>Resume Icon</desc>
    <g>
        <path class="fil0"
            d="M0 0l143613 0 0 8625 -7547 0 0 -1078 -128519 0 0 180922 128519 0 0 -46999 7547 0 0 54546 -143613 0 0 -196016zm91166 17430l93413 0 0 115235 -93413 0 0 -115235zm54354 52737l0 4543c0,826 -348,1537 -998,2041l-7272 5624 -7271 -5624c-651,-504 -999,-1215 -999,-2041l0 -4648 -574 -605c-1054,-1110 -1616,-2397 -1716,-3931l-168 -2606 -36 -11c-515,-157 -946,-338 -1270,-604 -324,-266 -539,-616 -785,-1311 -246,-694 -522,-1732 -719,-2663 -198,-930 -318,-1751 -372,-2467 -54,-715 -41,-1325 126,-1800 168,-476 617,-857 929,-955 312,-98 478,-36 617,-72 139,-36 -70,-117 -75,-186l-7 -96c-30,-37 -60,-75 -90,-115l0 0c-1172,-1548 -2054,-4583 -2298,-7297 -243,-2713 152,-5104 548,-7495 730,460 1460,920 2798,199 1339,-720 3286,-2620 5507,-3938 2220,-1319 4714,-2054 7285,-1932 2571,123 5217,1104 6723,2399 1506,1295 1871,2906 2236,4516 1172,-31 2343,-61 3188,1318 844,1379 1361,4169 1163,6614 -198,2444 -1110,4543 -2031,5639 -82,98 -165,187 -247,269l-11 79c233,15 452,65 663,145 447,169 854,471 1046,1036 192,564 168,1391 96,2216 -72,824 -192,1646 -389,2473 -197,828 -472,1661 -717,2253 -246,591 -461,942 -785,1207 -323,266 -755,447 -1270,604 -97,30 -196,58 -298,84l-163 2516c-98,1521 -652,2799 -1693,3908l-671 714zm-18754 5524c604,3014 1209,6028 1579,8618 370,2590 504,4758 638,6925 605,-1287 1210,-2574 1882,-3539 673,-965 1411,-1608 2150,-2252 1568,2483 2115,1177 3077,3843l-616 14283 -32584 0c387,-4802 822,-9131 1344,-11066 1193,-4418 2839,-6755 5426,-8550 2588,-1794 9140,-3047 11643,-4334 2504,-1287 3982,-2607 5461,-3928l0 0zm22214 0c-605,3014 -1210,6028 -1580,8618 -369,2590 -503,4758 -638,6925 -604,-1287 -1209,-2574 -1881,-3539 -673,-965 -1412,-1608 -2151,-2252 -1502,2380 -2051,1289 -3136,3802l824 14324 32435 0c-386,-4802 -821,-9131 -1344,-11066 -1192,-4418 -2839,-6755 -5426,-8550 -2588,-1794 -9139,-3047 -11643,-4334 -2503,-1287 -3981,-2607 -5460,-3928l0 0zm-50158 -51371l78101 0 0 83146 -78101 0 0 -83146zm-54112 99627l28568 0 0 7768 -28568 0 0 -7768zm0 20776l79461 0 0 7767 -79461 0 0 -7767zm0 20775l79461 0 0 7768 -79461 0 0 -7768zm-11868 -41551l-9360 0 0 7768 9360 0 0 -7768zm0 20776l-9360 0 0 7767 9360 0 0 -7767zm0 20775l-9360 0 0 7768 9360 0 0 -7768zm-9572 -137842l28569 0 0 7767 -28569 0 0 -7767zm0 22588l53071 0 0 7767 -53071 0 0 -7767zm0 19525l36226 0 0 7767 -36226 0 0 -7767zm0 26800l48536 0 0 7767 -48536 0 0 -7767z">
        </path>
    </g>
</svg>