<svg id="Snagit" xmlns="http://www.w3.org/2000/svg" xmlns:xlink="http://www.w3.org/1999/xlink" viewBox="0 0 96 96">
  <defs>
    <style>
      .cls-1 {
        fill: url(#snagit-primary-gradient);
      }

      .cls-2,
      .connector-element {
        fill: #fff;
      }

      .connector-element {
        opacity: 0.74;
      }
    </style>
    <linearGradient id="snagit-primary-gradient" x1="48" x2="48" y2="96" gradientUnits="userSpaceOnUse">
      <stop offset="0" stop-color="#58a0d2" />
      <stop offset="0.55" stop-color="#58a0d2" />
      <stop offset="1" stop-color="#3572b2" />
    </linearGradient>
  </defs>
  <title>svgs</title>
  <g id="_96" data-name="96">
    <rect id="background" class="cls-1" width="96" height="96" rx="9" ry="9" />
    <g id="shape">
      <path class="cls-2" d="M31.93,12.44A1.47,1.47,0,0,1,33,12H77.52a1.44,1.44,0,0,1,1.07.46,1.52,1.52,0,0,1,.4,1,1.46,1.46,0,0,1-.43,1l-13.16,12a1.49,1.49,0,0,1-1,.45H18L31.93,12.44" />
      <path class="cls-2" d="M32.86,70a1.45,1.45,0,0,0-1,.41l-13.39,12a1.47,1.47,0,0,0-.43,1,1.54,1.54,0,0,0,.4,1,1.43,1.43,0,0,0,1.07.47H64a1.47,1.47,0,0,0,1-.44L79,70H32.86Z" />
      <path class="cls-2" d="M18,41H64.07a1.44,1.44,0,0,1,1,.44L79,56H32.93a1.43,1.43,0,0,1-1-.44Z" />
      <rect class="connector-element" x="64" y="56" width="15" height="14" />
      <rect class="connector-element" x="18" y="27" width="15" height="14" />
    </g>
  </g>
</svg>