<svg xmlns="http://www.w3.org/2000/svg">
 <g display="inline">
  <title>logo</title>
  <g id="Layer_1"/>
  <g id="Layer_3"/>
  <g id="Layer_2">
   <radialGradient gradientUnits="userSpaceOnUse" gradientTransform="matrix(0.8856, 0, 0, 0.8855, 31.4671, 18.4874)" r="201.5601" cy="176.9478" cx="80.7544" id="SVGID_1_">
    <stop stop-color="#28AAE1" offset="0"/>
    <stop stop-color="#004B78" offset="1"/>
   </radialGradient>
   <path id="svg_2" d="m274.44699,115.646c-0.98099,-0.797 -2.005,-1.57301 -3.10699,-2.29201c-29.785,-19.195 -59.17401,-40.45699 -85.08701,-59.005c-11.36,-8.288 -26.09601,-3.542 -34.69501,9.665c-4.32799,6.714 -8.76799,13.399 -13.25,20.038l-0.004,38.129h37.58002v50.07899h-10.304v-40.54799l-27.276,0.002v25.011c0.004,1.47 0.067,2.74399 0.19299,3.832c0.13,1.084 0.414,1.98 0.854,2.69699c0.444,0.715 1.06801,1.258 1.87601,1.625c0.808,0.36501 1.873,0.55301 3.196,0.55301c2.38199,0 4.717,-0.369 6.995,-1.104l2.756,7.10699c-1.873,0.73401 -3.735,1.26801 -5.59,1.60001c-1.856,0.33 -3.758,0.49199 -5.705,0.494c-5.106,-0.14601 -8.881,-1.617 -11.323,-4.408s-3.665,-6.922 -3.665,-12.394v-25.013h-22.899c-4.238,5.927 -8.41199,11.746 -12.44299,17.375c-1.981,2.70999 -3.19601,5.61699 -3.75101,8.58499c1.26601,6.748 5.84801,13.25 12.98901,17.90001c28.862,18.59599 57.33701,39.19899 82.44699,57.17c11.01001,8.03299 25.28801,3.43399 33.621,-9.36101c11.22,-17.40399 23.162,-34.65199 34.82201,-51.123h-11.231h-0.26399v-42.75l-17.056,-0.00099l-12.75401,14.655l19.94501,28.153h-12.561l-18.405,-25.45601v25.399h-10.192l-0.004,-67.48499h10.196v38.17699l17.467,-20.824h33.93501l-0.00601,40.501h7.774c5.30701,-7.438 10.517,-14.7 15.51599,-21.683c5.75803,-7.88699 4.99701,-17.444 -0.59,-25.3z" fill="url(#SVGID_1_)"/>
   <radialGradient gradientUnits="userSpaceOnUse" gradientTransform="matrix(0.8856, 0, 0, 0.8855, 31.4671, 18.4874)" r="201.5549" cy="176.9468" cx="80.7544" id="SVGID_2_">
    <stop stop-color="#28AAE1" offset="0"/>
    <stop stop-color="#004B78" offset="1"/>
   </radialGradient>
   <path id="svg_3" d="m127.891,99.272c-5.392,7.777 -10.782,15.425 -16.104,22.909h16.104v-22.909l0,0z" fill="url(#SVGID_2_)"/>
   <path id="svg_4" d="m274.461,115.65c5.58499,7.855 6.34799,17.413 0.58801,25.3c-5.00101,6.983 -10.21201,14.24501 -15.51801,21.683h11.04099c3.54501,-4.95399 7.052,-9.843 10.44702,-14.584c7.59998,-10.412 4.22198,-23.64 -6.55801,-32.39899z" fill="#143C64"/>
   <path id="svg_5" d="m217.866,223.38901c-8.33499,12.791 -22.612,17.395 -33.623,9.36101c-25.108,-17.97301 -53.584,-38.57401 -82.445,-57.17201c-7.142,-4.64999 -11.723,-11.14999 -12.99,-17.90099c-1.771,9.459 3.362,19.55899 13.416,26.10799c29.785,19.18901 59.172,40.455 85.084,58.998c11.36,8.293 26.097,3.543 34.69701,-9.65999c13.43799,-20.84201 27.871,-41.46101 41.69101,-60.85901h-11.01102c-11.657,16.46899 -23.601,33.72099 -34.819,51.125z" fill="#143C64"/>
   <g id="svg_6">
    <path id="svg_7" d="m138.319,84.056c-3.45399,5.111 -6.92799,10.188 -10.416,15.22v22.909h-16.103c-2.284,3.21 -4.549,6.39101 -6.79501,9.532h22.898v25.01401c0,5.474 1.22301,9.603 3.666,12.396c2.44099,2.791 6.216,4.26201 11.321,4.40601c1.948,0 3.849,-0.162 5.705,-0.492c1.855,-0.336 3.71899,-0.869 5.592,-1.60001l-2.757,-7.10899c-2.278,0.73599 -4.61099,1.104 -6.995,1.104c-1.323,0 -2.388,-0.188 -3.196,-0.55301s-1.43199,-0.90999 -1.87599,-1.623c-0.44,-0.71899 -0.72501,-1.61499 -0.854,-2.69899c-0.12601,-1.088 -0.188,-2.36301 -0.19301,-3.83301v-25.00999l27.27701,-0.002v40.549h10.304v-50.079h-37.58101l0.00301,-38.13z" fill="#FFFFFF"/>
    <path id="svg_8" d="m259.53101,162.633h-7.774l0.007,-40.502h-33.936l-17.46701,20.82401v-38.177h-10.196l0.00401,67.48601h10.19199v-25.399l18.40601,25.45599h12.558l-19.942,-28.15399l12.752,-14.65501l17.056,0.00101v42.75101h0.26601h11.229h11.01099c2.314,-3.246 4.604,-6.45901 6.87601,-9.63101h-11.04199l0,0z" fill="#FFFFFF"/>
    <circle id="svg_9" r="5.018" cy="109.796" cx="170.752" fill="#FFFFFF"/>
    <circle id="svg_10" r="5.018" cy="109.796" cx="246.477" fill="#FFFFFF"/>
   </g>
   <g id="svg_11">
    <path id="svg_12" d="m293.177,104.775v1.196h-3.384v8.845h-1.37399v-8.845h-3.384v-1.196h8.142l0,0z" fill="#143C64"/>
    <path id="svg_13" d="m294.39401,104.775h1.94897l2.888,8.49l2.866,-8.49h1.936v10.042h-1.29898v-5.926c0,-0.205 0.005,-0.544 0.01398,-1.019s0.01401,-0.982 0.01401,-1.524l-2.867,8.469h-1.34799l-2.89499,-8.469v0.308c0,0.246 0.00699,0.621 0.021,1.125s0.021,0.874 0.021,1.111v5.926h-1.29901v-10.043l-0.00098,0z" fill="#143C64"/>
   </g>
  </g>
  <g id="Wiki"/>
  <g id="Layer_6"/>
  <g display="none" id="Layer_8"/>
 </g>
</svg>