<svg class="navImg" xmlns="http://www.w3.org/2000/svg" xmlns:xlink="http://www.w3.org/1999/xlink" xml:space="preserve" version="1.1" style="shape-rendering:geometricPrecision;text-rendering:geometricPrecision;image-rendering:optimizeQuality;" viewBox="0 0 49103 49104" x="0px" y="0px" fill-rule="evenodd" clip-rule="evenodd">
    <desc>Skills and Tools Pg Icon</desc>
    <g>
        <path d="M37287 16747c-11487,11487 -9070,9069 -20556,20556 1206,3102 557,6760 -1948,9265 -2304,2303 -5583,3037 -8508,2202l5233 -5233c501,-501 501,-1319 0,-1820l-4121 -4122c-502,-501 -1319,-501 -1821,0l-5233 5234c-835,-2926 -101,-6204 2203,-8508 2505,-2505 6162,-3154 9265,-1948 11486,-11487 9069,-9069 20555,-20556 -1205,-3103 -456,-6861 1948,-9265 2405,-2404 5583,-3037 8509,-2203l-5234 5234c-501,501 -501,1319 0,1820l4121 4121c502,502 1319,502 1821,0l5233 -5233c835,2926 202,6104 -2203,8508 -2404,2404 -6162,3154 -9264,1948zm-13588 15117l8165 -8165c1199,-1199 3417,1020 2219,2218l-8166 8166c-1198,1198 -3417,-1020 -2218,-2219zm-14712 -25446l13756 13756 -2569 2569 -13756 -13756 -1868 -324 -4550 -6239 2424 -2424 6239 4550 324 1868zm18201 28129l7359 -7358 13682 13681c1017,1018 1169,2526 338,3357l-4340 4341c-831,830 -2339,679 -3357,-339l-13682 -13682z"></path>
    </g>
</svg>